:FULLY-SPECIFIED
:FORCE-ALL-JOINTS-BE-3DOF
:DEGREES
170
root 6.40717 16.1788 -25.6121 3.99651 29.4104 0.163593
lfemur -24.0166 25.4139 -10.0654
ltibia 39.3302 -0 0
lfoot -9.97666 -1.602 0.319307
ltoes 10.5659 -0 0
rfemur -21.674 -7.32174 -4.27603
rtibia 62.2176 -0 0
rfoot 1.30188 -28.3892 0.169255
rtoes 42.2015 -0 0
lowerback 0.550585 -4.91541 -1.04114
upperback 0.00495116 -6.55644 -2.66326
thorax -0.32892 -3.27947 -2.00531
lowerneck -10.0308 -7.17025 -0.471704
upperneck 2.45172 -9.81022 5.58476
head 2.85004 -4.67876 1.33157
lclavicle -1.60469e-13 -1.03368e-14 0
lhumerus -50.5415 -42.848 114.838
lradius 51.659 -0 0
lwrist 13.1654 0 0
lhand 38.9423 25.3938 -0.0955726
lfingers 7.12502 -0 0
lthumb 61.5721 37.8507 -0.00114962
rclavicle -1.60469e-13 -1.03368e-14 0
rhumerus -52.202 -6.7705 -87.3146
rradius 95.6208 -0 0
rwrist -10.5474 0 0
rhand 3.4166 -16.2821 -0.574522
rfingers 7.12502 -0 0
rthumb 26.1136 -53.182 3.87188
171
root 6.35214 16.1763 -25.5924 4.09212 28.5516 0.305775
lfemur -23.8578 24.3773 -9.06658
ltibia 39.6695 -0 0
lfoot -10.6886 -3.80945 0.31298
ltoes 6.60169 -0 0
rfemur -20.4289 -6.83546 -4.43327
rtibia 59.0292 -0 0
rfoot -0.435482 -28.3518 0.235303
rtoes 41.8838 -0 0
lowerback 0.300692 -4.49695 -0.891601
upperback 0.0101605 -5.99087 -2.97986
thorax -0.229259 -2.99698 -2.44499
lowerneck -10.0306 -7.26057 -0.228896
upperneck 2.42644 -9.95941 5.58601
head 2.83167 -4.75045 1.28083
lclavicle -1.60469e-13 -1.03368e-14 0
lhumerus -50.9378 -42.899 114.969
lradius 51.7179 -0 0
lwrist 13.4927 0 0
lhand 38.9199 25.8979 -0.0791067
lfingers 7.12502 -0 0
lthumb 61.5437 38.3157 -0.000413629
rclavicle -1.60469e-13 -1.03368e-14 0
rhumerus -52.1944 -4.67144 -88.7463
rradius 95.393 -0 0
rwrist -8.39014 0 0
rhand -0.378865 -17.4739 -0.382944
rfingers 7.12502 -0 0
rthumb 22.9888 -53.3446 2.99053
172
root 6.29678 16.172 -25.5732 4.18343 27.6517 0.457843
lfemur -23.6197 23.3036 -8.07147
ltibia 39.8932 -0 0
lfoot -11.4151 -5.97331 0.285452
ltoes 2.95688 -0 0
rfemur -19.2964 -6.42719 -4.57108
rtibia 55.9848 -0 0
rfoot -2.153 -28.1728 0.284658
rtoes 41.5795 -0 0
lowerback 0.0612736 -4.09283 -0.755559
upperback 0.0143184 -5.44492 -3.29294
thorax -0.133036 -2.72388 -2.87319
lowerneck -10.0404 -7.32381 0.0124306
upperneck 2.40441 -10.0722 5.58094
head 2.8155 -4.80411 1.23051
lclavicle -1.60469e-13 -1.03368e-14 0
lhumerus -51.3143 -42.9379 115.066
lradius 51.7784 -0 0
lwrist 13.8282 0 0
lhand 38.8947 26.3794 -0.0606399
lfingers 7.12502 -0 0
lthumb 61.5119 38.7557 0.000934424
rclavicle -1.60469e-13 -1.03368e-14 0
rhumerus -52.2437 -2.51391 -89.9685
rradius 95.2354 -0 0
rwrist -6.40065 0 0
rhand -3.93413 -18.6354 -0.24872
rfingers 7.12502 -0 0
rthumb 20.123 -53.2562 2.12675
173
root 6.24126 16.1651 -25.5546 4.27532 26.7237 0.618633
lfemur -23.2921 22.2057 -7.09159
ltibia 39.9719 -0 0
lfoot -12.1408 -8.04309 0.239383
ltoes -0.242519 0 0
rfemur -18.2815 -6.09239 -4.70465
rtibia 53.1313 -0 0
rfoot -3.83614 -27.8542 0.309883
rtoes 41.3342 -0 0
lowerback -0.171358 -3.71218 -0.633063
upperback 0.0152919 -4.93076 -3.59736
thorax -0.0402006 -2.46632 -3.28443
lowerneck -10.061 -7.35605 0.248414
upperneck 2.38829 -10.1429 5.56846
head 2.80272 -4.83701 1.18127
lclavicle -1.60469e-13 -1.03368e-14 0
lhumerus -51.6725 -42.9678 115.136
lradius 51.8429 -0 0
lwrist 14.1701 0 0
lhand 38.8783 26.8348 -0.0417759
lfingers 7.12502 -0 0
lthumb 61.4874 39.1605 0.00253087
rclavicle -1.60469e-13 -1.03368e-14 0
rhumerus -52.3414 -0.309947 -90.9331
rradius 95.1705 -0 0
rwrist -4.64464 0 0
rhand -7.10889 -19.7032 -0.16723
rfingers 7.12502 -0 0
rthumb 17.6054 -52.9791 1.34441
174
root 6.18575 16.1553 -25.5365 4.37276 25.7803 0.786904
lfemur -22.8641 21.0966 -6.13846
ltibia 39.8766 -0 0
lfoot -12.8511 -9.96843 0.179789
ltoes -2.87054 0 0
rfemur -17.3898 -5.82603 -4.8486
rtibia 50.5158 -0 0
rfoot -5.47065 -27.3975 0.303029
rtoes 41.1935 -0 0
lowerback -0.400912 -3.36411 -0.524149
upperback 0.0111625 -4.46058 -3.88801
thorax 0.0494231 -2.23045 -3.67321
lowerneck -10.0931 -7.35337 0.475169
upperneck 2.38074 -10.1662 5.54748
head 2.79452 -4.84641 1.1338
lclavicle -1.60469e-13 -1.03368e-14 0
lhumerus -52.014 -42.992 115.186
lradius 51.9133 -0 0
lwrist 14.5163 0 0
lhand 38.8825 27.2604 -0.0242992
lfingers 7.12502 -0 0
lthumb 61.4808 39.5196 0.00386085
rclavicle -1.60469e-13 -1.03368e-14 0
rhumerus -52.4743 1.92921 -91.5915
rradius 95.221 -0 0
rwrist -3.18781 0 0
rhand -9.76286 -20.6143 -0.123257
rfingers 7.12502 -0 0
rthumb 15.5279 -52.5817 0.697923
175
root 6.13043 16.1419 -25.519 4.48075 24.8342 0.961335
lfemur -22.3237 19.9891 -5.2236
ltibia 39.5781 -0 0
lfoot -13.5314 -11.6991 0.113824
ltoes -4.80119 0 0
rfemur -16.6271 -5.62273 -5.01694
rtibia 48.1851 -0 0
rfoot -7.04264 -26.8037 0.255501
rtoes 41.2028 -0 0
lowerback -0.631112 -3.05771 -0.428832
upperback 0.000194878 -4.04662 -4.15983
thorax 0.136118 -2.02246 -4.03409
lowerneck -10.1374 -7.31185 0.688785
upperneck 2.38437 -10.1365 5.51691
head 2.79207 -4.82958 1.08876
lclavicle -1.60469e-13 -1.03368e-14 0
lhumerus -52.3406 -43.0137 115.224
lradius 51.9917 -0 0
lwrist 14.865 0 0
lhand 38.9189 27.6527 -0.0101416
lfingers 7.12502 -0 0
lthumb 61.5026 39.8224 0.0043073
rclavicle -1.60469e-13 -1.03368e-14 0
rhumerus -52.6246 4.19313 -91.893
rradius 95.4095 -0 0
rwrist -2.09586 0 0
rhand -11.7561 -21.3071 -0.0950032
rfingers 7.12502 -0 0
rthumb 13.9856 -52.1354 0.232967
176
root 6.07547 16.1245 -25.5021 4.60437 23.8981 1.14053
lfemur -21.6579 18.896 -4.35842
ltibia 39.0472 -0 0
lfoot -14.168 -13.1851 0.0504526
ltoes -5.9085 0 0
rfemur -15.9991 -5.47696 -5.22314
rtibia 46.1862 -0 0
rfoot -8.53873 -26.0732 0.157922
rtoes 41.4078 -0 0
lowerback -0.865686 -2.80207 -0.347097
upperback -0.0192044 -3.70108 -4.40775
thorax 0.220247 -1.84853 -4.36162
lowerneck -10.1948 -7.22761 0.885318
upperneck 2.40176 -10.0481 5.47573
head 2.79656 -4.78376 1.04685
lclavicle -1.60469e-13 -1.03368e-14 0
lhumerus -52.6539 -43.0358 115.259
lradius 52.0804 -0 0
lwrist 15.2141 0 0
lhand 38.9991 28.0084 -0.00134224
lfingers 7.12502 -0 0
lthumb 61.5636 40.0585 0.00321938
rclavicle -1.60469e-13 -1.03368e-14 0
rhumerus -52.7699 6.47189 -91.7847
rradius 95.7585 -0 0
rwrist -1.43449 0 0
rhand -12.9491 -21.7211 -0.0595913
rfingers 7.12502 -0 0
rthumb 13.0762 -51.7115 -0.0115211
177
root 6.02104 16.1025 -25.4859 4.74882 22.9848 1.32304
lfemur -20.8532 17.8302 -3.55422
ltibia 38.2546 0 0
lfoot -14.7473 -14.3766 0
ltoes -6.06648 0 0
rfemur -15.5118 -5.38319 -5.48015
rtibia 44.5662 0 0
rfoot -9.94619 -25.2064 0
rtoes 41.854 0 0
lowerback -1.10835 -2.60626 -0.278881
upperback -0.0485382 -3.43622 -4.62668
thorax 0.302226 -1.71484 -4.65037
lowerneck -10.2658 -7.09673 1.06079
upperneck 2.43545 -9.89567 5.42295
head 2.80915 -4.70623 1.00875
lclavicle -1.04958e-13 -4.45278e-14 0
lhumerus -52.9557 -43.0613 115.299
lradius 52.1813 0 0
lwrist 15.5618 0 0
lhand 39.1347 28.3237 0
lfingers 7.12502 0 0
lthumb 61.6741 40.2175 0
rclavicle -1.04958e-13 -4.45278e-14 0
rhumerus -52.8828 8.75544 -91.2104
rradius 96.2906 0 0
rwrist -1.2694 0 0
rhand -13.2023 -21.7955 0
rfingers 7.12502 0 0
rthumb 12.8982 -411.377 0
178
root 5.96574 16.0753 -25.4698 4.90735 22.0316 1.52278
lfemur -19.8369 16.7095 -2.77908
ltibia 37.1307 -0 0
lfoot -15.2958 -15.3599 -0.0328732
ltoes -5.20524 0 0
rfemur -15.2044 -5.39419 -5.77851
rtibia 43.3072 -0 0
rfoot -11.3123 -24.0882 -0.203219
rtoes 42.4992 -0 0
lowerback -1.35945 -2.4663 -0.229945
upperback -0.0831195 -3.24569 -4.82685
thorax 0.386641 -1.61855 -4.90774
lowerneck -10.3605 -6.90309 1.21695
upperneck 2.4849 -9.65788 5.35676
head 2.83067 -4.58641 0.974766
lclavicle -1.04958e-13 -4.45278e-14 0
lhumerus -53.2302 -43.0714 115.3
lradius 52.2956 -0 0
lwrist 15.9215 0 0
lhand 39.3173 28.5975 -0.00267579
lfingers 7.12502 -0 0
lthumb 61.8254 40.2954 -0.00459653
rclavicle -1.04958e-13 -4.45278e-14 0
rhumerus -53.053 11.2168 -90.1714
rradius 97.1424 -0 0
rwrist -1.6441 0 0
rhand -12.3849 -21.4655 0.083486
rfingers 7.12502 -0 0
rthumb 13.5356 -51.1551 0.311984
179
root 5.90835 16.043 -25.4534 5.06775 20.9778 1.75067
lfemur -18.5756 15.4535 -2.00742
ltibia 35.658 -0 0
lfoot -15.8494 -16.2562 -0.0520994
ltoes -3.41911 0 0
rfemur -15.0977 -5.55609 -6.0981
rtibia 42.342 -0 0
rfoot -12.6886 -22.6324 -0.416885
rtoes 43.26 -0 0
lowerback -1.6152 -2.36896 -0.204204
upperback -0.117092 -3.11074 -5.02168
thorax 0.476859 -1.55045 -5.14555
lowerneck -10.4849 -6.63926 1.35932
upperneck 2.54653 -9.3256 5.27715
head 2.86032 -4.4197 0.944351
lclavicle -1.04958e-13 -4.45278e-14 0
lhumerus -53.4635 -43.0493 115.221
lradius 52.4217 -0 0
lwrist 16.3052 0 0
lhand 39.5273 28.8331 -0.00465277
lfingers 7.12502 -0 0
lthumb 61.9987 40.3016 -0.00928093
rclavicle -1.04958e-13 -4.45278e-14 0
rhumerus -53.3379 13.9984 -88.7335
rradius 98.3878 -0 0
rwrist -2.51456 0 0
rhand -10.5615 -20.7518 0.171808
rfingers 7.12502 -0 0
rthumb 14.939 -50.9852 0.908316
180
root 5.84929 16.0062 -25.4369 5.22725 19.8389 2.00093
lfemur -17.112 14.0792 -1.25874
ltibia 33.8858 -0 0
lfoot -16.4085 -17.0681 -0.0595753
ltoes -0.828425 0 0
rfemur -15.1701 -5.85347 -6.4344
rtibia 41.6431 -0 0
rfoot -14.0688 -20.8822 -0.62404
rtoes 44.1196 -0 0
lowerback -1.87305 -2.30938 -0.198797
upperback -0.150218 -3.02496 -5.21084
thorax 0.571431 -1.50726 -5.36499
lowerneck -10.6341 -6.31446 1.48959
upperneck 2.61824 -8.9113 5.18598
head 2.89683 -4.21233 0.916963
lclavicle -1.04958e-13 -4.45278e-14 0
lhumerus -53.6607 -43.0004 115.074
lradius 52.5575 -0 0
lwrist 16.709 0 0
lhand 39.7594 29.0335 -0.00606941
lfingers 7.12502 -0 0
lthumb 62.1898 40.2451 -0.0137241
rclavicle -1.04958e-13 -4.45278e-14 0
rhumerus -53.6563 17.0431 -86.9283
rradius 99.9558 -0 0
rwrist -3.81522 0 0
rhand -7.88574 -19.7224 0.235471
rfingers 7.12502 -0 0
rthumb 17.007 -50.7975 1.73353
181
root 5.78899 15.9657 -25.4206 5.38347 18.6304 2.26808
lfemur -15.4867 12.6054 -0.550403
ltibia 31.8634 -0 0
lfoot -16.9735 -17.7981 -0.0572303
ltoes 2.44647 -0 0
rfemur -15.4002 -6.27086 -6.78174
rtibia 41.1834 -0 0
rfoot -15.4456 -18.8815 -0.810197
rtoes 45.0617 -0 0
lowerback -2.13041 -2.28269 -0.210898
upperback -0.182314 -2.98194 -5.39403
thorax 0.66886 -1.48572 -5.56725
lowerneck -10.8033 -5.93791 1.60943
upperneck 2.69793 -8.42748 5.08504
head 2.93899 -3.97054 0.89206
lclavicle -1.04958e-13 -4.45278e-14 0
lhumerus -53.8269 -42.9304 114.869
lradius 52.7011 -0 0
lwrist 17.1291 0 0
lhand 40.0084 29.2017 -0.00700716
lfingers 7.12502 -0 0
lthumb 62.3944 40.1353 -0.0176002
rclavicle -1.04958e-13 -4.45278e-14 0
rhumerus -53.9263 20.2908 -84.7778
rradius 101.775 -0 0
rwrist -5.48048 0 0
rhand -4.51237 -18.4477 0.240898
rfingers 7.12502 -0 0
rthumb 19.6396 -50.5201 2.72868
182
root 5.72791 15.922 -25.4045 5.53437 17.3681 2.54698
lfemur -13.7379 11.0525 0.10298
ltibia 29.6401 -0 0
lfoot -17.5449 -18.4487 -0.0470231
ltoes 6.28524 -0 0
rfemur -15.767 -6.79258 -7.13382
rtibia 40.9354 -0 0
rfoot -16.811 -16.6746 -0.963559
rtoes 46.0696 -0 0
lowerback -2.38466 -2.284 -0.237724
upperback -0.21325 -2.97526 -5.57095
thorax 0.767598 -1.48256 -5.75353
lowerneck -10.9877 -5.51887 1.7206
upperneck 2.78357 -7.88664 4.97612
head 2.98555 -3.70055 0.86909
lclavicle -1.04958e-13 -4.45278e-14 0
lhumerus -53.9674 -42.8446 114.619
lradius 52.8505 -0 0
lwrist 17.5613 0 0
lhand 40.2692 29.3409 -0.00751095
lfingers 7.12502 -0 0
lthumb 62.6084 39.9814 -0.0206211
rclavicle -1.04958e-13 -4.45278e-14 0
rhumerus -54.0652 23.6764 -82.2921
rradius 103.774 -0 0
rwrist -7.44476 0 0
rhand -0.597377 -17.0017 0.159111
rfingers 7.12502 -0 0
rthumb 22.74 -50.0835 3.82829
